<svg version="1.1" viewBox="0.0 0.0 600.0 371.0" fill="none" stroke="none" stroke-linecap="square" stroke-miterlimit="10" width="600" height="371" xmlns:xlink="http://www.w3.org/1999/xlink" xmlns="http://www.w3.org/2000/svg"><path fill="#ffffff" fill-opacity="0.0" d="M0 0L600.0 0L600.0 371.0L0 371.0L0 0Z" fill-rule="nonzero"/><clipPath id="id_0"><path d="M77.55 25.55L581.45 25.55L581.45 345.45L77.55 345.45L77.55 25.55Z" clip-rule="nonzero"/></clipPath><path stroke="#000000" stroke-width="0.0" stroke-linecap="butt" stroke-opacity="0.0" clip-path="url(#id_0)" d="M102.0 345.0L86.0 345.0L86.0 44.0C86.0 42.89543 86.89543 42.0 88.0 42.0L100.0 42.0C101.10457 42.0 102.0 42.89543 102.0 44.0Z" fill-rule="nonzero"/><path fill="#4285f4" clip-path="url(#id_0)" d="M102.0 345.0L86.0 345.0L86.0 44.0C86.0 42.89543 86.89543 42.0 88.0 42.0L100.0 42.0C101.10457 42.0 102.0 42.89543 102.0 44.0Z" fill-rule="nonzero"/><path stroke="#000000" stroke-width="0.0" stroke-linecap="butt" stroke-opacity="0.0" clip-path="url(#id_0)" d="M127.0 345.0L111.0 345.0L111.0 44.0C111.0 42.89543 111.89543 42.0 113.0 42.0L125.0 42.0C126.10457 42.0 127.0 42.89543 127.0 44.0Z" fill-rule="nonzero"/><path fill="#4285f4" clip-path="url(#id_0)" d="M127.0 345.0L111.0 345.0L111.0 44.0C111.0 42.89543 111.89543 42.0 113.0 42.0L125.0 42.0C126.10457 42.0 127.0 42.89543 127.0 44.0Z" fill-rule="nonzero"/><path stroke="#000000" stroke-width="0.0" stroke-linecap="butt" stroke-opacity="0.0" clip-path="url(#id_0)" d="M152.0 345.0L136.0 345.0L136.0 60.0C136.0 58.89543 136.89543 58.0 138.0 58.0L150.0 58.0C151.10457 58.0 152.0 58.89543 152.0 60.0Z" fill-rule="nonzero"/><path fill="#4285f4" clip-path="url(#id_0)" d="M152.0 345.0L136.0 345.0L136.0 60.0C136.0 58.89543 136.89543 58.0 138.0 58.0L150.0 58.0C151.10457 58.0 152.0 58.89543 152.0 60.0Z" fill-rule="nonzero"/><path stroke="#000000" stroke-width="0.0" stroke-linecap="butt" stroke-opacity="0.0" clip-path="url(#id_0)" d="M177.0 345.0L161.0 345.0L161.0 92.0C161.0 90.89543 161.89543 90.0 163.0 90.0L175.0 90.0C176.10457 90.0 177.0 90.89543 177.0 92.0Z" fill-rule="nonzero"/><path fill="#4285f4" clip-path="url(#id_0)" d="M177.0 345.0L161.0 345.0L161.0 92.0C161.0 90.89543 161.89543 90.0 163.0 90.0L175.0 90.0C176.10457 90.0 177.0 90.89543 177.0 92.0Z" fill-rule="nonzero"/><path stroke="#000000" stroke-width="0.0" stroke-linecap="butt" stroke-opacity="0.0" clip-path="url(#id_0)" d="M201.0 345.0L185.0 345.0L185.0 108.0C185.0 106.89543 185.89543 106.0 187.0 106.0L199.0 106.0C200.10457 106.0 201.0 106.89543 201.0 108.0Z" fill-rule="nonzero"/><path fill="#4285f4" clip-path="url(#id_0)" d="M201.0 345.0L185.0 345.0L185.0 108.0C185.0 106.89543 185.89543 106.0 187.0 106.0L199.0 106.0C200.10457 106.0 201.0 106.89543 201.0 108.0Z" fill-rule="nonzero"/><path stroke="#000000" stroke-width="0.0" stroke-linecap="butt" stroke-opacity="0.0" clip-path="url(#id_0)" d="M226.0 345.0L210.0 345.0L210.0 108.0C210.0 106.89543 210.89543 106.0 212.0 106.0L224.0 106.0C225.10457 106.0 226.0 106.89543 226.0 108.0Z" fill-rule="nonzero"/><path fill="#4285f4" clip-path="url(#id_0)" d="M226.0 345.0L210.0 345.0L210.0 108.0C210.0 106.89543 210.89543 106.0 212.0 106.0L224.0 106.0C225.10457 106.0 226.0 106.89543 226.0 108.0Z" fill-rule="nonzero"/><path stroke="#000000" stroke-width="0.0" stroke-linecap="butt" stroke-opacity="0.0" clip-path="url(#id_0)" d="M251.0 345.0L235.0 345.0L235.0 140.0C235.0 138.89543 235.89543 138.0 237.0 138.0L249.0 138.0C250.10457 138.0 251.0 138.89543 251.0 140.0Z" fill-rule="nonzero"/><path fill="#4285f4" clip-path="url(#id_0)" d="M251.0 345.0L235.0 345.0L235.0 140.0C235.0 138.89543 235.89543 138.0 237.0 138.0L249.0 138.0C250.10457 138.0 251.0 138.89543 251.0 140.0Z" fill-rule="nonzero"/><path stroke="#000000" stroke-width="0.0" stroke-linecap="butt" stroke-opacity="0.0" clip-path="url(#id_0)" d="M276.0 345.0L260.0 345.0L260.0 140.0C260.0 138.89543 260.89542 138.0 262.0 138.0L274.0 138.0C275.10458 138.0 276.0 138.89543 276.0 140.0Z" fill-rule="nonzero"/><path fill="#4285f4" clip-path="url(#id_0)" d="M276.0 345.0L260.0 345.0L260.0 140.0C260.0 138.89543 260.89542 138.0 262.0 138.0L274.0 138.0C275.10458 138.0 276.0 138.89543 276.0 140.0Z" fill-rule="nonzero"/><path stroke="#000000" stroke-width="0.0" stroke-linecap="butt" stroke-opacity="0.0" clip-path="url(#id_0)" d="M300.0 345.0L284.0 345.0L284.0 148.0C284.0 146.89543 284.89542 146.0 286.0 146.0L298.0 146.0C299.10458 146.0 300.0 146.89543 300.0 148.0Z" fill-rule="nonzero"/><path fill="#4285f4" clip-path="url(#id_0)" d="M300.0 345.0L284.0 345.0L284.0 148.0C284.0 146.89543 284.89542 146.0 286.0 146.0L298.0 146.0C299.10458 146.0 300.0 146.89543 300.0 148.0Z" fill-rule="nonzero"/><path stroke="#000000" stroke-width="0.0" stroke-linecap="butt" stroke-opacity="0.0" clip-path="url(#id_0)" d="M325.0 345.0L309.0 345.0L309.0 180.0C309.0 178.89543 309.89542 178.0 311.0 178.0L323.0 178.0C324.10458 178.0 325.0 178.89543 325.0 180.0Z" fill-rule="nonzero"/><path fill="#4285f4" clip-path="url(#id_0)" d="M325.0 345.0L309.0 345.0L309.0 180.0C309.0 178.89543 309.89542 178.0 311.0 178.0L323.0 178.0C324.10458 178.0 325.0 178.89543 325.0 180.0Z" fill-rule="nonzero"/><path stroke="#000000" stroke-width="0.0" stroke-linecap="butt" stroke-opacity="0.0" clip-path="url(#id_0)" d="M350.0 345.0L334.0 345.0L334.0 188.0C334.0 186.89543 334.89542 186.0 336.0 186.0L348.0 186.0C349.10458 186.0 350.0 186.89543 350.0 188.0Z" fill-rule="nonzero"/><path fill="#4285f4" clip-path="url(#id_0)" d="M350.0 345.0L334.0 345.0L334.0 188.0C334.0 186.89543 334.89542 186.0 336.0 186.0L348.0 186.0C349.10458 186.0 350.0 186.89543 350.0 188.0Z" fill-rule="nonzero"/><path stroke="#000000" stroke-width="0.0" stroke-linecap="butt" stroke-opacity="0.0" clip-path="url(#id_0)" d="M375.0 345.0L359.0 345.0L359.0 195.0C359.0 193.89543 359.89542 193.0 361.0 193.0L373.0 193.0C374.10458 193.0 375.0 193.89543 375.0 195.0Z" fill-rule="nonzero"/><path fill="#4285f4" clip-path="url(#id_0)" d="M375.0 345.0L359.0 345.0L359.0 195.0C359.0 193.89543 359.89542 193.0 361.0 193.0L373.0 193.0C374.10458 193.0 375.0 193.89543 375.0 195.0Z" fill-rule="nonzero"/><path stroke="#000000" stroke-width="0.0" stroke-linecap="butt" stroke-opacity="0.0" clip-path="url(#id_0)" d="M399.0 345.0L383.0 345.0L383.0 195.0C383.0 193.89543 383.89542 193.0 385.0 193.0L397.0 193.0C398.10458 193.0 399.0 193.89543 399.0 195.0Z" fill-rule="nonzero"/><path fill="#4285f4" clip-path="url(#id_0)" d="M399.0 345.0L383.0 345.0L383.0 195.0C383.0 193.89543 383.89542 193.0 385.0 193.0L397.0 193.0C398.10458 193.0 399.0 193.89543 399.0 195.0Z" fill-rule="nonzero"/><path stroke="#000000" stroke-width="0.0" stroke-linecap="butt" stroke-opacity="0.0" clip-path="url(#id_0)" d="M424.0 345.0L408.0 345.0L408.0 203.0C408.0 201.89543 408.89542 201.0 410.0 201.0L422.0 201.0C423.10458 201.0 424.0 201.89543 424.0 203.0Z" fill-rule="nonzero"/><path fill="#4285f4" clip-path="url(#id_0)" d="M424.0 345.0L408.0 345.0L408.0 203.0C408.0 201.89543 408.89542 201.0 410.0 201.0L422.0 201.0C423.10458 201.0 424.0 201.89543 424.0 203.0Z" fill-rule="nonzero"/><path stroke="#000000" stroke-width="0.0" stroke-linecap="butt" stroke-opacity="0.0" clip-path="url(#id_0)" d="M449.0 345.0L433.0 345.0L433.0 203.0C433.0 201.89543 433.89542 201.0 435.0 201.0L447.0 201.0C448.10458 201.0 449.0 201.89543 449.0 203.0Z" fill-rule="nonzero"/><path fill="#4285f4" clip-path="url(#id_0)" d="M449.0 345.0L433.0 345.0L433.0 203.0C433.0 201.89543 433.89542 201.0 435.0 201.0L447.0 201.0C448.10458 201.0 449.0 201.89543 449.0 203.0Z" fill-rule="nonzero"/><path stroke="#000000" stroke-width="0.0" stroke-linecap="butt" stroke-opacity="0.0" clip-path="url(#id_0)" d="M474.0 345.0L458.0 345.0L458.0 211.0C458.0 209.89543 458.89542 209.0 460.0 209.0L472.0 209.0C473.10458 209.0 474.0 209.89543 474.0 211.0Z" fill-rule="nonzero"/><path fill="#4285f4" clip-path="url(#id_0)" d="M474.0 345.0L458.0 345.0L458.0 211.0C458.0 209.89543 458.89542 209.0 460.0 209.0L472.0 209.0C473.10458 209.0 474.0 209.89543 474.0 211.0Z" fill-rule="nonzero"/><path stroke="#000000" stroke-width="0.0" stroke-linecap="butt" stroke-opacity="0.0" clip-path="url(#id_0)" d="M498.0 345.0L482.0 345.0L482.0 227.0C482.0 225.89543 482.89542 225.0 484.0 225.0L496.0 225.0C497.10458 225.0 498.0 225.89543 498.0 227.0Z" fill-rule="nonzero"/><path fill="#4285f4" clip-path="url(#id_0)" d="M498.0 345.0L482.0 345.0L482.0 227.0C482.0 225.89543 482.89542 225.0 484.0 225.0L496.0 225.0C497.10458 225.0 498.0 225.89543 498.0 227.0Z" fill-rule="nonzero"/><path stroke="#000000" stroke-width="0.0" stroke-linecap="butt" stroke-opacity="0.0" clip-path="url(#id_0)" d="M523.0 345.0L507.0 345.0L507.0 235.0C507.0 233.89543 507.89542 233.0 509.0 233.0L521.0 233.0C522.10455 233.0 523.0 233.89543 523.0 235.0Z" fill-rule="nonzero"/><path fill="#4285f4" clip-path="url(#id_0)" d="M523.0 345.0L507.0 345.0L507.0 235.0C507.0 233.89543 507.89542 233.0 509.0 233.0L521.0 233.0C522.10455 233.0 523.0 233.89543 523.0 235.0Z" fill-rule="nonzero"/><path stroke="#000000" stroke-width="0.0" stroke-linecap="butt" stroke-opacity="0.0" clip-path="url(#id_0)" d="M548.0 345.0L532.0 345.0L532.0 235.0C532.0 233.89543 532.89545 233.0 534.0 233.0L546.0 233.0C547.10455 233.0 548.0 233.89543 548.0 235.0Z" fill-rule="nonzero"/><path fill="#4285f4" clip-path="url(#id_0)" d="M548.0 345.0L532.0 345.0L532.0 235.0C532.0 233.89543 532.89545 233.0 534.0 233.0L546.0 233.0C547.10455 233.0 548.0 233.89543 548.0 235.0Z" fill-rule="nonzero"/><path stroke="#000000" stroke-width="0.0" stroke-linecap="butt" stroke-opacity="0.0" clip-path="url(#id_0)" d="M573.0 345.0L557.0 345.0L557.0 267.0C557.0 265.89542 557.89545 265.0 559.0 265.0L571.0 265.0C572.10455 265.0 573.0 265.89542 573.0 267.0Z" fill-rule="nonzero"/><path fill="#4285f4" clip-path="url(#id_0)" d="M573.0 345.0L557.0 345.0L557.0 267.0C557.0 265.89542 557.89545 265.0 559.0 265.0L571.0 265.0C572.10455 265.0 573.0 265.89542 573.0 267.0Z" fill-rule="nonzero"/><path fill="#ffffff" d="M89.28125 21.748125L90.09375 21.748125Q90.875 21.7325 91.3125 21.341875Q91.75 20.95125 91.75 20.279375Q91.75 18.779375 90.25 18.779375Q89.546875 18.779375 89.125 19.185625Q88.71875 19.591875 88.71875 20.248125L87.625 20.248125Q87.625 19.2325 88.359375 18.560625Q89.109375 17.88875 90.25 17.88875Q91.453125 17.88875 92.140625 18.529375Q92.828125 19.17 92.828125 20.310625Q92.828125 20.873125 92.46875 21.38875Q92.109375 21.904375 91.484375 22.17Q92.1875 22.38875 92.5625 22.904375Q92.953125 23.42 92.953125 24.17Q92.953125 25.310625 92.203125 25.998125Q91.453125 26.67 90.25 26.67Q89.0625 26.67 88.296875 26.01375Q87.546875 25.3575 87.546875 24.295L88.640625 24.295Q88.640625 24.966875 89.078125 25.373125Q89.515625 25.779375 90.265625 25.779375Q91.046875 25.779375 91.453125 25.373125Q91.875 24.95125 91.875 24.185625Q91.875 23.45125 91.421875 23.060625Q90.96875 22.654375 90.09375 22.63875L89.28125 22.63875L89.28125 21.748125ZM99.890625 20.2325Q99.890625 20.873125 99.546875 21.373125Q99.203125 21.873125 98.640625 22.154375Q99.296875 22.435625 99.6875 22.998125Q100.078125 23.545 100.078125 24.248125Q100.078125 25.341875 99.328125 26.01375Q98.59375 26.67 97.375 26.67Q96.140625 26.67 95.390625 26.01375Q94.65625 25.341875 94.65625 24.248125Q94.65625 23.545 95.03125 22.998125Q95.40625 22.435625 96.078125 22.154375Q95.515625 21.873125 95.1875 21.373125Q94.859375 20.873125 94.859375 20.2325Q94.859375 19.154375 95.546875 18.529375Q96.234375 17.88875 97.375 17.88875Q98.5 17.88875 99.1875 18.529375Q99.890625 19.154375 99.890625 20.2325ZM99.0 24.216875Q99.0 23.498125 98.546875 23.060625Q98.09375 22.6075 97.359375 22.6075Q96.625 22.6075 96.171875 23.060625Q95.734375 23.498125 95.734375 24.2325Q95.734375 24.95125 96.171875 25.373125Q96.609375 25.779375 97.375 25.779375Q98.125 25.779375 98.5625 25.3575Q99.0 24.935625 99.0 24.216875ZM97.375 18.779375Q96.734375 18.779375 96.328125 19.185625Q95.9375 19.57625 95.9375 20.26375Q95.9375 20.904375 96.328125 21.310625Q96.71875 21.716875 97.359375 21.716875Q98.015625 21.716875 98.40625 21.310625Q98.796875 20.904375 98.796875 20.26375Q98.796875 19.6075 98.390625 19.20125Q97.984375 18.779375 97.375 18.779375Z" fill-rule="nonzero"/><path fill="#ffffff" d="M114.28125 21.748125L115.09375 21.748125Q115.875 21.7325 116.3125 21.341875Q116.75 20.95125 116.75 20.279375Q116.75 18.779375 115.25 18.779375Q114.546875 18.779375 114.125 19.185625Q113.71875 19.591875 113.71875 20.248125L112.625 20.248125Q112.625 19.2325 113.359375 18.560625Q114.109375 17.88875 115.25 17.88875Q116.453125 17.88875 117.140625 18.529375Q117.828125 19.17 117.828125 20.310625Q117.828125 20.873125 117.46875 21.38875Q117.109375 21.904375 116.484375 22.17Q117.1875 22.38875 117.5625 22.904375Q117.953125 23.42 117.953125 24.17Q117.953125 25.310625 117.203125 25.998125Q116.453125 26.67 115.25 26.67Q114.0625 26.67 113.296875 26.01375Q112.546875 25.3575 112.546875 24.295L113.640625 24.295Q113.640625 24.966875 114.078125 25.373125Q114.515625 25.779375 115.265625 25.779375Q116.046875 25.779375 116.453125 25.373125Q116.875 24.95125 116.875 24.185625Q116.875 23.45125 116.421875 23.060625Q115.96875 22.654375 115.09375 22.63875L114.28125 22.63875L114.28125 21.748125ZM124.890625 20.2325Q124.890625 20.873125 124.546875 21.373125Q124.203125 21.873125 123.640625 22.154375Q124.296875 22.435625 124.6875 22.998125Q125.078125 23.545 125.078125 24.248125Q125.078125 25.341875 124.328125 26.01375Q123.59375 26.67 122.375 26.67Q121.140625 26.67 120.390625 26.01375Q119.65625 25.341875 119.65625 24.248125Q119.65625 23.545 120.03125 22.998125Q120.40625 22.435625 121.078125 22.154375Q120.515625 21.873125 120.1875 21.373125Q119.859375 20.873125 119.859375 20.2325Q119.859375 19.154375 120.546875 18.529375Q121.234375 17.88875 122.375 17.88875Q123.5 17.88875 124.1875 18.529375Q124.890625 19.154375 124.890625 20.2325ZM124.0 24.216875Q124.0 23.498125 123.546875 23.060625Q123.09375 22.6075 122.359375 22.6075Q121.625 22.6075 121.171875 23.060625Q120.734375 23.498125 120.734375 24.2325Q120.734375 24.95125 121.171875 25.373125Q121.609375 25.779375 122.375 25.779375Q123.125 25.779375 123.5625 25.3575Q124.0 24.935625 124.0 24.216875ZM122.375 18.779375Q121.734375 18.779375 121.328125 19.185625Q120.9375 19.57625 120.9375 20.26375Q120.9375 20.904375 121.328125 21.310625Q121.71875 21.716875 122.359375 21.716875Q123.015625 21.716875 123.40625 21.310625Q123.796875 20.904375 123.796875 20.26375Q123.796875 19.6075 123.390625 19.20125Q122.984375 18.779375 122.375 18.779375Z" fill-rule="nonzero"/><path fill="#ffffff" d="M139.28125 37.743126L140.09375 37.743126Q140.875 37.7275 141.3125 37.336876Q141.75 36.94625 141.75 36.274376Q141.75 34.774376 140.25 34.774376Q139.54688 34.774376 139.125 35.180626Q138.71875 35.586876 138.71875 36.243126L137.625 36.243126Q137.625 35.2275 138.35938 34.555626Q139.10938 33.88375 140.25 33.88375Q141.45312 33.88375 142.14062 34.524376Q142.82812 35.165 142.82812 36.305626Q142.82812 36.868126 142.46875 37.38375Q142.10938 37.899376 141.48438 38.165Q142.1875 38.38375 142.5625 38.899376Q142.95312 39.415 142.95312 40.165Q142.95312 41.305626 142.20312 41.993126Q141.45312 42.665 140.25 42.665Q139.0625 42.665 138.29688 42.00875Q137.54688 41.3525 137.54688 40.29L138.64062 40.29Q138.64062 40.961876 139.07812 41.368126Q139.51562 41.774376 140.26562 41.774376Q141.04688 41.774376 141.45312 41.368126Q141.875 40.94625 141.875 40.180626Q141.875 39.44625 141.42188 39.055626Q140.96875 38.649376 140.09375 38.63375L139.28125 38.63375L139.28125 37.743126ZM148.96875 34.00875L148.96875 34.915L148.76562 34.915Q147.5 34.94625 146.75 35.680626Q146.0 36.399376 145.875 37.711876Q146.5625 36.94625 147.71875 36.94625Q148.82812 36.94625 149.5 37.7275Q150.17188 38.50875 150.17188 39.75875Q150.17188 41.07125 149.45312 41.868126Q148.73438 42.665 147.51562 42.665Q146.29688 42.665 145.53125 41.7275Q144.78125 40.774376 144.78125 39.29L144.78125 38.88375Q144.78125 36.524376 145.78125 35.274376Q146.78125 34.024376 148.76562 34.00875L148.96875 34.00875ZM147.54688 37.8525Q146.98438 37.8525 146.51562 38.180626Q146.04688 38.50875 145.85938 39.024376L145.85938 39.415Q145.85938 40.4775 146.32812 41.118126Q146.8125 41.75875 147.51562 41.75875Q148.25 41.75875 148.67188 41.2275Q149.09375 40.680626 149.09375 39.805626Q149.09375 38.930626 148.67188 38.399376Q148.25 37.8525 147.54688 37.8525Z" fill-rule="nonzero"/><path fill="#ffffff" d="M164.28125 69.73312L165.09375 69.73312Q165.875 69.7175 166.3125 69.32687Q166.75 68.93625 166.75 68.26437Q166.75 66.76437 165.25 66.76437Q164.54688 66.76437 164.125 67.17062Q163.71875 67.57687 163.71875 68.23312L162.625 68.23312Q162.625 67.2175 163.35938 66.54562Q164.10938 65.87375 165.25 65.87375Q166.45312 65.87375 167.14062 66.51437Q167.82812 67.155 167.82812 68.29562Q167.82812 68.85812 167.46875 69.37375Q167.10938 69.88937 166.48438 70.155Q167.1875 70.37375 167.5625 70.88937Q167.95312 71.405 167.95312 72.155Q167.95312 73.29562 167.20312 73.98312Q166.45312 74.655 165.25 74.655Q164.0625 74.655 163.29688 73.99875Q162.54688 73.3425 162.54688 72.28L163.64062 72.28Q163.64062 72.95187 164.07812 73.35812Q164.51562 73.76437 165.26562 73.76437Q166.04688 73.76437 166.45312 73.35812Q166.875 72.93625 166.875 72.17062Q166.875 71.43625 166.42188 71.04562Q165.96875 70.63937 165.09375 70.62375L164.28125 70.62375L164.28125 69.73312ZM175.29688 74.53L169.70312 74.53L169.70312 73.74875L172.65625 70.4675Q173.3125 69.7175 173.5625 69.26437Q173.8125 68.79562 173.8125 68.29562Q173.8125 67.62375 173.40625 67.20187Q173.01562 66.76437 172.32812 66.76437Q171.53125 66.76437 171.07812 67.23312Q170.625 67.68625 170.625 68.51437L169.54688 68.51437Q169.54688 67.32687 170.29688 66.60812Q171.0625 65.87375 172.32812 65.87375Q173.53125 65.87375 174.21875 66.49875Q174.90625 67.12375 174.90625 68.17062Q174.90625 69.42062 173.29688 71.17062L171.01562 73.63937L175.29688 73.63937L175.29688 74.53Z" fill-rule="nonzero"/><path fill="#ffffff" d="M188.28125 85.72813L189.09375 85.72813Q189.875 85.7125 190.3125 85.32188Q190.75 84.93125 190.75 84.25938Q190.75 82.75938 189.25 82.75938Q188.54688 82.75938 188.125 83.16563Q187.71875 83.57188 187.71875 84.22813L186.625 84.22813Q186.625 83.2125 187.35938 82.54063Q188.10938 81.86875 189.25 81.86875Q190.45312 81.86875 191.14062 82.50938Q191.82812 83.15 191.82812 84.29063Q191.82812 84.85313 191.46875 85.36875Q191.10938 85.88438 190.48438 86.15Q191.1875 86.36875 191.5625 86.88438Q191.95312 87.4 191.95312 88.15Q191.95312 89.29063 191.20312 89.97813Q190.45312 90.65 189.25 90.65Q188.0625 90.65 187.29688 89.99375Q186.54688 89.3375 186.54688 88.275L187.64062 88.275Q187.64062 88.94688 188.07812 89.35313Q188.51562 89.75938 189.26562 89.75938Q190.04688 89.75938 190.45312 89.35313Q190.875 88.93125 190.875 88.16563Q190.875 87.43125 190.42188 87.04063Q189.96875 86.63438 189.09375 86.61875L188.28125 86.61875L188.28125 85.72813ZM199.0625 86.88438Q199.0625 88.79063 198.40625 89.72813Q197.76562 90.65 196.375 90.65Q195.01562 90.65 194.35938 89.74375Q193.70312 88.8375 193.67188 87.025L193.67188 85.5875Q193.67188 83.69688 194.3125 82.79063Q194.96875 81.86875 196.35938 81.86875Q197.73438 81.86875 198.39062 82.75938Q199.04688 83.63438 199.0625 85.47813L199.0625 86.88438ZM197.96875 85.4Q197.96875 84.025 197.57812 83.4Q197.20312 82.75938 196.35938 82.75938Q195.53125 82.75938 195.14062 83.4Q194.76562 84.025 194.76562 85.32188L194.76562 87.05625Q194.76562 88.43125 195.15625 89.10313Q195.5625 89.75938 196.375 89.75938Q197.17188 89.75938 197.5625 89.13438Q197.95312 88.50938 197.96875 87.18125L197.96875 85.4Z" fill-rule="nonzero"/><path fill="#ffffff" d="M213.28125 85.72813L214.09375 85.72813Q214.875 85.7125 215.3125 85.32188Q215.75 84.93125 215.75 84.25938Q215.75 82.75938 214.25 82.75938Q213.54688 82.75938 213.125 83.16563Q212.71875 83.57188 212.71875 84.22813L211.625 84.22813Q211.625 83.2125 212.35938 82.54063Q213.10938 81.86875 214.25 81.86875Q215.45312 81.86875 216.14062 82.50938Q216.82812 83.15 216.82812 84.29063Q216.82812 84.85313 216.46875 85.36875Q216.10938 85.88438 215.48438 86.15Q216.1875 86.36875 216.5625 86.88438Q216.95312 87.4 216.95312 88.15Q216.95312 89.29063 216.20312 89.97813Q215.45312 90.65 214.25 90.65Q213.0625 90.65 212.29688 89.99375Q211.54688 89.3375 211.54688 88.275L212.64062 88.275Q212.64062 88.94688 213.07812 89.35313Q213.51562 89.75938 214.26562 89.75938Q215.04688 89.75938 215.45312 89.35313Q215.875 88.93125 215.875 88.16563Q215.875 87.43125 215.42188 87.04063Q214.96875 86.63438 214.09375 86.61875L213.28125 86.61875L213.28125 85.72813ZM224.0625 86.88438Q224.0625 88.79063 223.40625 89.72813Q222.76562 90.65 221.375 90.65Q220.01562 90.65 219.35938 89.74375Q218.70312 88.8375 218.67188 87.025L218.67188 85.5875Q218.67188 83.69688 219.3125 82.79063Q219.96875 81.86875 221.35938 81.86875Q222.73438 81.86875 223.39062 82.75938Q224.04688 83.63438 224.0625 85.47813L224.0625 86.88438ZM222.96875 85.4Q222.96875 84.025 222.57812 83.4Q222.20312 82.75938 221.35938 82.75938Q220.53125 82.75938 220.14062 83.4Q219.76562 84.025 219.76562 85.32188L219.76562 87.05625Q219.76562 88.43125 220.15625 89.10313Q220.5625 89.75938 221.375 89.75938Q222.17188 89.75938 222.5625 89.13438Q222.95312 88.50938 222.96875 87.18125L222.96875 85.4Z" fill-rule="nonzero"/><path fill="#ffffff" d="M242.29688 122.515L236.70312 122.515L236.70312 121.73375L239.65625 118.4525Q240.3125 117.7025 240.5625 117.249374Q240.8125 116.780624 240.8125 116.280624Q240.8125 115.60875 240.40625 115.186874Q240.01562 114.749374 239.32812 114.749374Q238.53125 114.749374 238.07812 115.218124Q237.625 115.67125 237.625 116.499374L236.54688 116.499374Q236.54688 115.311874 237.29688 114.593124Q238.0625 113.85875 239.32812 113.85875Q240.53125 113.85875 241.21875 114.48375Q241.90625 115.10875 241.90625 116.155624Q241.90625 117.405624 240.29688 119.155624L238.01562 121.624374L242.29688 121.624374L242.29688 122.515ZM247.96875 113.98375L247.96875 114.89L247.76562 114.89Q246.5 114.92125 245.75 115.655624Q245.0 116.374374 244.875 117.686874Q245.5625 116.92125 246.71875 116.92125Q247.82812 116.92125 248.5 117.7025Q249.17188 118.48375 249.17188 119.73375Q249.17188 121.04625 248.45312 121.843124Q247.73438 122.64 246.51562 122.64Q245.29688 122.64 244.53125 121.7025Q243.78125 120.749374 243.78125 119.265L243.78125 118.85875Q243.78125 116.499374 244.78125 115.249374Q245.78125 113.999374 247.76562 113.98375L247.96875 113.98375ZM246.54688 117.8275Q245.98438 117.8275 245.51562 118.155624Q245.04688 118.48375 244.85938 118.999374L244.85938 119.39Q244.85938 120.4525 245.32812 121.093124Q245.8125 121.73375 246.51562 121.73375Q247.25 121.73375 247.67188 121.2025Q248.09375 120.655624 248.09375 119.780624Q248.09375 118.905624 247.67188 118.374374Q247.25 117.8275 246.54688 117.8275Z" fill-rule="nonzero"/><path fill="#ffffff" d="M267.29688 122.515L261.70312 122.515L261.70312 121.73375L264.65625 118.4525Q265.3125 117.7025 265.5625 117.249374Q265.8125 116.780624 265.8125 116.280624Q265.8125 115.60875 265.40625 115.186874Q265.01562 114.749374 264.32812 114.749374Q263.53125 114.749374 263.07812 115.218124Q262.625 115.67125 262.625 116.499374L261.54688 116.499374Q261.54688 115.311874 262.29688 114.593124Q263.0625 113.85875 264.32812 113.85875Q265.53125 113.85875 266.21875 114.48375Q266.90625 115.10875 266.90625 116.155624Q266.90625 117.405624 265.29688 119.155624L263.01562 121.624374L267.29688 121.624374L267.29688 122.515ZM272.96875 113.98375L272.96875 114.89L272.76562 114.89Q271.5 114.92125 270.75 115.655624Q270.0 116.374374 269.875 117.686874Q270.5625 116.92125 271.71875 116.92125Q272.82812 116.92125 273.5 117.7025Q274.17188 118.48375 274.17188 119.73375Q274.17188 121.04625 273.45312 121.843124Q272.73438 122.64 271.51562 122.64Q270.29688 122.64 269.53125 121.7025Q268.78125 120.749374 268.78125 119.265L268.78125 118.85875Q268.78125 116.499374 269.78125 115.249374Q270.78125 113.999374 272.76562 113.98375L272.96875 113.98375ZM271.54688 117.8275Q270.98438 117.8275 270.51562 118.155624Q270.04688 118.48375 269.85938 118.999374L269.85938 119.39Q269.85938 120.4525 270.32812 121.093124Q270.8125 121.73375 271.51562 121.73375Q272.25 121.73375 272.67188 121.2025Q273.09375 120.655624 273.09375 119.780624Q273.09375 118.905624 272.67188 118.374374Q272.25 117.8275 271.54688 117.8275Z" fill-rule="nonzero"/><path fill="#ffffff" d="M291.29688 130.5125L285.70312 130.5125L285.70312 129.73125L288.65625 126.45Q289.3125 125.7 289.5625 125.24687Q289.8125 124.77812 289.8125 124.27812Q289.8125 123.60625 289.40625 123.18437Q289.01562 122.74687 288.32812 122.74687Q287.53125 122.74687 287.07812 123.21562Q286.625 123.66875 286.625 124.49687L285.54688 124.49687Q285.54688 123.30937 286.29688 122.59062Q287.0625 121.85625 288.32812 121.85625Q289.53125 121.85625 290.21875 122.48125Q290.90625 123.10625 290.90625 124.15312Q290.90625 125.40312 289.29688 127.15312L287.01562 129.62187L291.29688 129.62187L291.29688 130.5125ZM293.20312 126.23125L293.64062 121.98125L298.01562 121.98125L298.01562 122.98125L294.5625 122.98125L294.29688 125.30937Q294.9375 124.93437 295.73438 124.93437Q296.89062 124.93437 297.57812 125.71562Q298.26562 126.48125 298.26562 127.79375Q298.26562 129.10625 297.54688 129.87187Q296.84375 130.6375 295.5625 130.6375Q294.4375 130.6375 293.71875 130.0125Q293.0 129.37187 292.90625 128.2625L293.92188 128.2625Q294.03125 128.99687 294.45312 129.37187Q294.875 129.74687 295.5625 129.74687Q296.3125 129.74687 296.75 129.23125Q297.1875 128.71562 297.1875 127.80937Q297.1875 126.95 296.71875 126.43437Q296.25 125.91875 295.46875 125.91875Q294.76562 125.91875 294.35938 126.21562L294.07812 126.45L293.20312 126.23125Z" fill-rule="nonzero"/><path fill="#ffffff" d="M316.29688 162.5025L310.70312 162.5025L310.70312 161.72125L313.65625 158.44Q314.3125 157.69 314.5625 157.23688Q314.8125 156.76813 314.8125 156.26813Q314.8125 155.59625 314.40625 155.17438Q314.01562 154.73688 313.32812 154.73688Q312.53125 154.73688 312.07812 155.20563Q311.625 155.65875 311.625 156.48688L310.54688 156.48688Q310.54688 155.29938 311.29688 154.58063Q312.0625 153.84625 313.32812 153.84625Q314.53125 153.84625 315.21875 154.47125Q315.90625 155.09625 315.90625 156.14313Q315.90625 157.39313 314.29688 159.14313L312.01562 161.61188L316.29688 161.61188L316.29688 162.5025ZM321.26562 162.5025L320.1875 162.5025L320.1875 155.28375L318.0 156.08063L318.0 155.09625L321.10938 153.92438L321.26562 153.92438L321.26562 162.5025Z" fill-rule="nonzero"/><path fill="#ffffff" d="M341.29688 170.5L335.70312 170.5L335.70312 169.71875L338.65625 166.4375Q339.3125 165.6875 339.5625 165.23438Q339.8125 164.76562 339.8125 164.26562Q339.8125 163.59375 339.40625 163.17188Q339.01562 162.73438 338.32812 162.73438Q337.53125 162.73438 337.07812 163.20312Q336.625 163.65625 336.625 164.48438L335.54688 164.48438Q335.54688 163.29688 336.29688 162.57812Q337.0625 161.84375 338.32812 161.84375Q339.53125 161.84375 340.21875 162.46875Q340.90625 163.09375 340.90625 164.14062Q340.90625 165.39062 339.29688 167.14062L337.01562 169.60938L341.29688 169.60938L341.29688 170.5ZM348.0625 166.85938Q348.0625 168.76562 347.40625 169.70312Q346.76562 170.625 345.375 170.625Q344.01562 170.625 343.35938 169.71875Q342.70312 168.8125 342.67188 167.0L342.67188 165.5625Q342.67188 163.67188 343.3125 162.76562Q343.96875 161.84375 345.35938 161.84375Q346.73438 161.84375 347.39062 162.73438Q348.04688 163.60938 348.0625 165.45312L348.0625 166.85938ZM346.96875 165.375Q346.96875 164.0 346.57812 163.375Q346.20312 162.73438 345.35938 162.73438Q344.53125 162.73438 344.14062 163.375Q343.76562 164.0 343.76562 165.29688L343.76562 167.03125Q343.76562 168.40625 344.15625 169.07812Q344.5625 169.73438 345.375 169.73438Q346.17188 169.73438 346.5625 169.10938Q346.95312 168.48438 346.96875 167.15625L346.96875 165.375Z" fill-rule="nonzero"/><path fill="#ffffff" d="M364.26562 178.4975L363.1875 178.4975L363.1875 171.27875L361.0 172.07562L361.0 171.09125L364.10938 169.91937L364.26562 169.91937L364.26562 178.4975ZM371.85938 174.7475Q371.53125 175.15375 371.04688 175.40375Q370.57812 175.63812 370.01562 175.63812Q369.28125 175.63812 368.73438 175.27875Q368.1875 174.91937 367.89062 174.26312Q367.59375 173.59125 367.59375 172.79437Q367.59375 171.95062 367.90625 171.26312Q368.23438 170.57562 368.82812 170.21625Q369.4375 169.84125 370.23438 169.84125Q371.5 169.84125 372.21875 170.79437Q372.95312 171.7475 372.95312 173.3725L372.95312 173.685Q372.95312 176.185 371.96875 177.32562Q370.98438 178.46625 369.0 178.4975L368.78125 178.4975L368.78125 177.59125L369.01562 177.59125Q370.35938 177.56 371.07812 176.88812Q371.79688 176.21625 371.85938 174.7475ZM370.1875 174.7475Q370.73438 174.7475 371.1875 174.41937Q371.65625 174.07562 371.875 173.59125L371.875 173.15375Q371.875 172.09125 371.40625 171.41937Q370.9375 170.7475 370.23438 170.7475Q369.51562 170.7475 369.07812 171.29437Q368.65625 171.84125 368.65625 172.7475Q368.65625 173.6225 369.0625 174.185Q369.48438 174.7475 370.1875 174.7475Z" fill-rule="nonzero"/><path fill="#ffffff" d="M388.26562 178.4975L387.1875 178.4975L387.1875 171.27875L385.0 172.07562L385.0 171.09125L388.10938 169.91937L388.26562 169.91937L388.26562 178.4975ZM395.85938 174.7475Q395.53125 175.15375 395.04688 175.40375Q394.57812 175.63812 394.01562 175.63812Q393.28125 175.63812 392.73438 175.27875Q392.1875 174.91937 391.89062 174.26312Q391.59375 173.59125 391.59375 172.79437Q391.59375 171.95062 391.90625 171.26312Q392.23438 170.57562 392.82812 170.21625Q393.4375 169.84125 394.23438 169.84125Q395.5 169.84125 396.21875 170.79437Q396.95312 171.7475 396.95312 173.3725L396.95312 173.685Q396.95312 176.185 395.96875 177.32562Q394.98438 178.46625 393.0 178.4975L392.78125 178.4975L392.78125 177.59125L393.01562 177.59125Q394.35938 177.56 395.07812 176.88812Q395.79688 176.21625 395.85938 174.7475ZM394.1875 174.7475Q394.73438 174.7475 395.1875 174.41937Q395.65625 174.07562 395.875 173.59125L395.875 173.15375Q395.875 172.09125 395.40625 171.41937Q394.9375 170.7475 394.23438 170.7475Q393.51562 170.7475 393.07812 171.29437Q392.65625 171.84125 392.65625 172.7475Q392.65625 173.6225 393.0625 174.185Q393.48438 174.7475 394.1875 174.7475Z" fill-rule="nonzero"/><path fill="#ffffff" d="M413.26562 186.495L412.1875 186.495L412.1875 179.27625L410.0 180.07312L410.0 179.08875L413.10938 177.91687L413.26562 177.91687L413.26562 186.495ZM421.89062 180.1825Q421.89062 180.82312 421.54688 181.32312Q421.20312 181.82312 420.64062 182.10437Q421.29688 182.38562 421.6875 182.94812Q422.07812 183.495 422.07812 184.19812Q422.07812 185.29187 421.32812 185.96375Q420.59375 186.62 419.375 186.62Q418.14062 186.62 417.39062 185.96375Q416.65625 185.29187 416.65625 184.19812Q416.65625 183.495 417.03125 182.94812Q417.40625 182.38562 418.07812 182.10437Q417.51562 181.82312 417.1875 181.32312Q416.85938 180.82312 416.85938 180.1825Q416.85938 179.10437 417.54688 178.47937Q418.23438 177.83875 419.375 177.83875Q420.5 177.83875 421.1875 178.47937Q421.89062 179.10437 421.89062 180.1825ZM421.0 184.16687Q421.0 183.44812 420.54688 183.01062Q420.09375 182.5575 419.35938 182.5575Q418.625 182.5575 418.17188 183.01062Q417.73438 183.44812 417.73438 184.1825Q417.73438 184.90125 418.17188 185.32312Q418.60938 185.72937 419.375 185.72937Q420.125 185.72937 420.5625 185.3075Q421.0 184.88562 421.0 184.16687ZM419.375 178.72937Q418.73438 178.72937 418.32812 179.13562Q417.9375 179.52625 417.9375 180.21375Q417.9375 180.85437 418.32812 181.26062Q418.71875 181.66687 419.35938 181.66687Q420.01562 181.66687 420.40625 181.26062Q420.79688 180.85437 420.79688 180.21375Q420.79688 179.5575 420.39062 179.15125Q419.98438 178.72937 419.375 178.72937Z" fill-rule="nonzero"/><path fill="#ffffff" d="M438.26562 186.495L437.1875 186.495L437.1875 179.27625L435.0 180.07312L435.0 179.08875L438.10938 177.91687L438.26562 177.91687L438.26562 186.495ZM446.89062 180.1825Q446.89062 180.82312 446.54688 181.32312Q446.20312 181.82312 445.64062 182.10437Q446.29688 182.38562 446.6875 182.94812Q447.07812 183.495 447.07812 184.19812Q447.07812 185.29187 446.32812 185.96375Q445.59375 186.62 444.375 186.62Q443.14062 186.62 442.39062 185.96375Q441.65625 185.29187 441.65625 184.19812Q441.65625 183.495 442.03125 182.94812Q442.40625 182.38562 443.07812 182.10437Q442.51562 181.82312 442.1875 181.32312Q441.85938 180.82312 441.85938 180.1825Q441.85938 179.10437 442.54688 178.47937Q443.23438 177.83875 444.375 177.83875Q445.5 177.83875 446.1875 178.47937Q446.89062 179.10437 446.89062 180.1825ZM446.0 184.16687Q446.0 183.44812 445.54688 183.01062Q445.09375 182.5575 444.35938 182.5575Q443.625 182.5575 443.17188 183.01062Q442.73438 183.44812 442.73438 184.1825Q442.73438 184.90125 443.17188 185.32312Q443.60938 185.72937 444.375 185.72937Q445.125 185.72937 445.5625 185.3075Q446.0 184.88562 446.0 184.16687ZM444.375 178.72937Q443.73438 178.72937 443.32812 179.13562Q442.9375 179.52625 442.9375 180.21375Q442.9375 180.85437 443.32812 181.26062Q443.71875 181.66687 444.35938 181.66687Q445.01562 181.66687 445.40625 181.26062Q445.79688 180.85437 445.79688 180.21375Q445.79688 179.5575 445.39062 179.15125Q444.98438 178.72937 444.375 178.72937Z" fill-rule="nonzero"/><path fill="#ffffff" d="M463.26562 194.4925L462.1875 194.4925L462.1875 187.27374L460.0 188.07062L460.0 187.08624L463.10938 185.91437L463.26562 185.91437L463.26562 194.4925ZM472.21875 186.57062L468.6875 194.4925L467.54688 194.4925L471.0625 186.85187L466.45312 186.85187L466.45312 185.96124L472.21875 185.96124L472.21875 186.57062Z" fill-rule="nonzero"/><path fill="#ffffff" d="M487.26562 210.4875L486.1875 210.4875L486.1875 203.26875L484.0 204.06563L484.0 203.08125L487.10938 201.90938L487.26562 201.90938L487.26562 210.4875ZM491.20312 206.20625L491.64062 201.95625L496.01562 201.95625L496.01562 202.95625L492.5625 202.95625L492.29688 205.28438Q492.9375 204.90938 493.73438 204.90938Q494.89062 204.90938 495.57812 205.69063Q496.26562 206.45625 496.26562 207.76875Q496.26562 209.08125 495.54688 209.84688Q494.84375 210.6125 493.5625 210.6125Q492.4375 210.6125 491.71875 209.9875Q491.0 209.34688 490.90625 208.2375L491.92188 208.2375Q492.03125 208.97188 492.45312 209.34688Q492.875 209.72188 493.5625 209.72188Q494.3125 209.72188 494.75 209.20625Q495.1875 208.69063 495.1875 207.78438Q495.1875 206.925 494.71875 206.40938Q494.25 205.89375 493.46875 205.89375Q492.76562 205.89375 492.35938 206.19063L492.07812 206.425L491.20312 206.20625Z" fill-rule="nonzero"/><path fill="#ffffff" d="M512.2656 218.485L511.1875 218.485L511.1875 211.26625L509.0 212.06313L509.0 211.07875L512.1094 209.90688L512.2656 209.90688L512.2656 218.485ZM520.28125 215.62563L521.46875 215.62563L521.46875 216.50063L520.28125 216.50063L520.28125 218.485L519.2031 218.485L519.2031 216.50063L515.3125 216.50063L515.3125 215.86L519.125 209.95375L520.28125 209.95375L520.28125 215.62563ZM516.5469 215.62563L519.2031 215.62563L519.2031 211.43813L519.0625 211.6725L516.5469 215.62563Z" fill-rule="nonzero"/><path fill="#ffffff" d="M537.2656 218.485L536.1875 218.485L536.1875 211.26625L534.0 212.06313L534.0 211.07875L537.1094 209.90688L537.2656 209.90688L537.2656 218.485ZM545.28125 215.62563L546.46875 215.62563L546.46875 216.50063L545.28125 216.50063L545.28125 218.485L544.2031 218.485L544.2031 216.50063L540.3125 216.50063L540.3125 215.86L544.125 209.95375L545.28125 209.95375L545.28125 215.62563ZM541.5469 215.62563L544.2031 215.62563L544.2031 211.43813L544.0625 211.6725L541.5469 215.62563Z" fill-rule="nonzero"/><path fill="#ffffff" d="M562.2656 250.475L561.1875 250.475L561.1875 243.25626L559.0 244.05313L559.0 243.06876L562.1094 241.89688L562.2656 241.89688L562.2656 250.475ZM571.0625 246.83438Q571.0625 248.74063 570.40625 249.67813Q569.7656 250.6 568.375 250.6Q567.0156 250.6 566.3594 249.69376Q565.7031 248.7875 565.6719 246.975L565.6719 245.5375Q565.6719 243.64688 566.3125 242.74063Q566.96875 241.81876 568.3594 241.81876Q569.7344 241.81876 570.3906 242.70938Q571.0469 243.58438 571.0625 245.42813L571.0625 246.83438ZM569.96875 245.35Q569.96875 243.975 569.5781 243.35Q569.2031 242.70938 568.3594 242.70938Q567.53125 242.70938 567.1406 243.35Q566.7656 243.975 566.7656 245.27188L566.7656 247.00626Q566.7656 248.38126 567.15625 249.05313Q567.5625 249.70938 568.375 249.70938Q569.1719 249.70938 569.5625 249.08438Q569.9531 248.45938 569.96875 247.13126L569.96875 245.35Z" fill-rule="nonzero"/><path fill="#ffffff" d="M26.784388 225.95312L26.690638 224.89062Q27.346888 224.8125 27.753138 224.53125Q28.159388 224.25 28.425013 223.67188Q28.675013 223.07812 28.675013 222.34375Q28.675013 221.70312 28.487513 221.20312Q28.284388 220.70312 27.956263 220.46875Q27.612513 220.21875 27.221888 220.21875Q26.815638 220.21875 26.518763 220.45312Q26.206263 220.6875 26.003138 221.21875Q25.862513 221.57812 25.581263 222.76562Q25.300013 223.9375 25.050013 224.40625Q24.721888 225.03125 24.253138 225.32812Q23.768763 225.625 23.175013 225.625Q22.534388 225.625 21.971888 225.26562Q21.393763 224.89062 21.112513 224.1875Q20.815638 223.46875 20.815638 222.60938Q20.815638 221.65625 21.128138 220.92188Q21.425013 220.1875 22.034388 219.79688Q22.628138 219.40625 23.378138 219.375L23.456263 220.46875Q22.643763 220.5625 22.237513 221.07812Q21.815638 221.57812 21.815638 222.5625Q21.815638 223.59375 22.190638 224.0625Q22.565638 224.53125 23.096888 224.53125Q23.565638 224.53125 23.862513 224.20312Q24.159388 223.875 24.471888 222.5Q24.784388 221.10938 25.018763 220.59375Q25.378138 219.84375 25.909388 219.48438Q26.425013 219.125 27.128138 219.125Q27.815638 219.125 28.425013 219.51562Q29.018763 219.90625 29.362513 220.64062Q29.690638 221.375 29.690638 222.29688Q29.690638 223.46875 29.362513 224.26562Q29.018763 225.04688 28.331263 225.5Q27.643763 225.9375 26.784388 225.95312ZM27.268763 213.64062L27.409388 212.60938Q28.471888 212.78125 29.081263 213.48438Q29.690638 214.1875 29.690638 215.20312Q29.690638 216.48438 28.862513 217.26562Q28.018763 218.03125 26.456263 218.03125Q25.456263 218.03125 24.706263 217.70312Q23.940638 217.35938 23.565638 216.6875Q23.190638 216.0 23.190638 215.1875Q23.190638 214.1875 23.706263 213.54688Q24.206263 212.89062 25.159388 212.70312L25.315638 213.73438Q24.690638 213.875 24.378138 214.25Q24.050013 214.625 24.050013 215.15625Q24.050013 215.95312 24.628138 216.45312Q25.190638 216.95312 26.425013 216.95312Q27.690638 216.95312 28.253138 216.46875Q28.815638 215.98438 28.815638 215.21875Q28.815638 214.59375 28.440638 214.1875Q28.065638 213.76562 27.268763 213.64062ZM26.440638 212.09375Q24.706263 212.09375 23.878138 211.14062Q23.190638 210.34375 23.190638 209.1875Q23.190638 207.90625 24.034388 207.09375Q24.862513 206.26562 26.346888 206.26562Q27.550013 206.26562 28.237513 206.625Q28.925013 206.98438 29.315638 207.6875Q29.690638 208.375 29.690638 209.1875Q29.690638 210.48438 28.862513 211.29688Q28.018763 212.09375 26.440638 212.09375ZM26.440638 211.01562Q27.628138 211.01562 28.221888 210.5Q28.815638 209.96875 28.815638 209.1875Q28.815638 208.39062 28.221888 207.875Q27.628138 207.35938 26.409388 207.35938Q25.253138 207.35938 24.659388 207.89062Q24.065638 208.40625 24.065638 209.1875Q24.065638 209.96875 24.659388 210.5Q25.237513 211.01562 26.440638 211.01562ZM29.550013 204.71875L23.331263 204.71875L23.331263 203.76562L24.268763 203.76562Q23.612513 203.40625 23.409388 203.10938Q23.190638 202.79688 23.190638 202.42188Q23.190638 201.89062 23.518763 201.34375L24.503138 201.70312Q24.268763 202.09375 24.268763 202.46875Q24.268763 202.82812 24.487513 203.10938Q24.690638 203.375 25.065638 203.48438Q25.628138 203.67188 26.284388 203.67188L29.550013 203.67188L29.550013 204.71875ZM27.550013 196.45312L27.675013 195.35938Q28.628138 195.60938 29.159388 196.3125Q29.690638 197.01562 29.690638 198.09375Q29.690638 199.45312 28.846888 200.26562Q28.003138 201.0625 26.487513 201.0625Q24.925013 201.0625 24.065638 200.25Q23.190638 199.4375 23.190638 198.15625Q23.190638 196.90625 24.034388 196.125Q24.878138 195.32812 26.425013 195.32812Q26.518763 195.32812 26.706263 195.32812L26.706263 199.96875Q27.737513 199.90625 28.284388 199.39062Q28.815638 198.875 28.815638 198.09375Q28.815638 197.51562 28.518763 197.10938Q28.206263 196.6875 27.550013 196.45312ZM25.846888 199.90625L25.846888 196.4375Q25.050013 196.5 24.659388 196.82812Q24.050013 197.34375 24.050013 198.14062Q24.050013 198.875 24.534388 199.375Q25.018763 199.85938 25.846888 199.90625ZM26.440638 191.09375Q24.706263 191.09375 23.878138 190.14062Q23.190638 189.34375 23.190638 188.1875Q23.190638 186.90625 24.034388 186.09375Q24.862513 185.26562 26.346888 185.26562Q27.550013 185.26562 28.237513 185.625Q28.925013 185.98438 29.315638 186.6875Q29.690638 187.375 29.690638 188.1875Q29.690638 189.48438 28.862513 190.29688Q28.018763 191.09375 26.440638 191.09375ZM26.440638 190.01562Q27.628138 190.01562 28.221888 189.5Q28.815638 188.96875 28.815638 188.1875Q28.815638 187.39062 28.221888 186.875Q27.628138 186.35938 26.409388 186.35938Q25.253138 186.35938 24.659388 186.89062Q24.065638 187.40625 24.065638 188.1875Q24.065638 188.96875 24.659388 189.5Q25.237513 190.01562 26.440638 190.01562ZM29.550013 179.625L28.628138 179.625Q29.690638 180.35938 29.690638 181.60938Q29.690638 182.15625 29.487513 182.64062Q29.268763 183.10938 28.956263 183.34375Q28.628138 183.57812 28.159388 183.67188Q27.862513 183.73438 27.175013 183.73438L23.331263 183.73438L23.331263 182.67188L26.784388 182.67188Q27.596888 182.67188 27.893763 182.60938Q28.300013 182.51562 28.550013 182.20312Q28.784388 181.875 28.784388 181.39062Q28.784388 180.92188 28.550013 180.51562Q28.300013 180.09375 27.878138 179.92188Q27.456263 179.73438 26.659388 179.73438L23.331263 179.73438L23.331263 178.6875L29.550013 178.6875L29.550013 179.625ZM28.612513 174.40625L29.534388 174.25Q29.628138 174.70312 29.628138 175.04688Q29.628138 175.625 29.456263 175.9375Q29.268763 176.25 28.971888 176.39062Q28.675013 176.51562 27.721888 176.51562L24.143763 176.51562L24.143763 177.28125L23.331263 177.28125L23.331263 176.51562L21.784388 176.51562L21.159388 175.46875L23.331263 175.46875L23.331263 174.40625L24.143763 174.40625L24.143763 175.46875L27.784388 175.46875Q28.237513 175.46875 28.362513 175.42188Q28.487513 175.35938 28.565638 175.23438Q28.643763 175.10938 28.643763 174.875Q28.643763 174.6875 28.612513 174.40625ZM26.440638 171.09375Q24.706263 171.09375 23.878138 170.14062Q23.190638 169.34375 23.190638 168.1875Q23.190638 166.90625 24.034388 166.09375Q24.862513 165.26562 26.346888 165.26562Q27.550013 165.26562 28.237513 165.625Q28.925013 165.98438 29.315638 166.6875Q29.690638 167.375 29.690638 168.1875Q29.690638 169.48438 28.862513 170.29688Q28.018763 171.09375 26.440638 171.09375ZM26.440638 170.01562Q27.628138 170.01562 28.221888 169.5Q28.815638 168.96875 28.815638 168.1875Q28.815638 167.39062 28.221888 166.875Q27.628138 166.35938 26.409388 166.35938Q25.253138 166.35938 24.659388 166.89062Q24.065638 167.40625 24.065638 168.1875Q24.065638 168.96875 24.659388 169.5Q25.237513 170.01562 26.440638 170.01562ZM29.550013 163.45312L24.143763 163.45312L24.143763 164.39062L23.331263 164.39062L23.331263 163.45312L22.659388 163.45312Q22.034388 163.45312 21.737513 163.34375Q21.315638 163.1875 21.065638 162.8125Q20.815638 162.42188 20.815638 161.73438Q20.815638 161.28125 20.925013 160.75L21.831263 160.90625Q21.784388 161.23438 21.784388 161.53125Q21.784388 162.01562 21.987513 162.21875Q22.190638 162.40625 22.753138 162.40625L23.331263 162.40625L23.331263 161.1875L24.143763 161.1875L24.143763 162.40625L29.550013 162.40625L29.550013 163.45312ZM29.550013 154.625L27.487513 154.625L27.487513 158.34375L26.518763 158.34375L20.956263 154.42188L20.956263 153.5625L26.518763 153.5625L26.518763 152.40625L27.487513 152.40625L27.487513 153.5625L29.550013 153.5625L29.550013 154.625ZM26.518763 154.625L22.659388 154.625L26.518763 157.3125L26.518763 154.625ZM23.065638 145.53125L23.143763 146.57812Q22.518763 146.71875 22.237513 146.96875Q21.784388 147.40625 21.784388 148.03125Q21.784388 148.53125 22.065638 148.92188Q22.440638 149.40625 23.143763 149.70312Q23.831263 149.98438 25.112513 150.0Q24.534388 149.625 24.253138 149.07812Q23.971888 148.51562 23.971888 147.90625Q23.971888 146.85938 24.753138 146.125Q25.534388 145.375 26.753138 145.375Q27.565638 145.375 28.268763 145.73438Q28.956263 146.07812 29.331263 146.6875Q29.690638 147.29688 29.690638 148.0625Q29.690638 149.39062 28.721888 150.21875Q27.753138 151.04688 25.534388 151.04688Q23.034388 151.04688 21.909388 150.125Q20.925013 149.32812 20.925013 147.96875Q20.925013 146.95312 21.503138 146.3125Q22.065638 145.65625 23.065638 145.53125ZM26.768763 149.82812Q27.315638 149.82812 27.815638 149.60938Q28.300013 149.375 28.565638 148.96875Q28.831263 148.54688 28.831263 148.07812Q28.831263 147.42188 28.300013 146.9375Q27.753138 146.45312 26.831263 146.45312Q25.940638 146.45312 25.425013 146.9375Q24.909388 147.40625 24.909388 148.125Q24.909388 148.84375 25.425013 149.34375Q25.940638 149.82812 26.768763 149.82812Z" fill-rule="nonzero"/><path fill="#ffffff" d="M65.05 345.21564Q65.05 343.6844 65.3625 342.7625Q65.675 341.825 66.28438 341.325Q66.90938 340.825 67.84688 340.825Q68.53438 340.825 69.05 341.10626Q69.58125 341.3875 69.925 341.91876Q70.26875 342.4344 70.45625 343.1844Q70.64375 343.9344 70.64375 345.21564Q70.64375 346.73126 70.33125 347.65314Q70.03438 348.575 69.40938 349.09064Q68.8 349.59064 67.84688 349.59064Q66.6125 349.59064 65.89375 348.7Q65.05 347.6375 65.05 345.21564ZM66.12813 345.21564Q66.12813 347.325 66.62813 348.02814Q67.12813 348.73126 67.84688 348.73126Q68.58125 348.73126 69.06563 348.02814Q69.56563 347.325 69.56563 345.21564Q69.56563 343.09064 69.06563 342.40314Q68.58125 341.7 67.83125 341.7Q67.1125 341.7 66.675 342.3094Q66.12813 343.09064 66.12813 345.21564Z" fill-rule="nonzero"/><path fill="#ffffff" d="M62.01875 269.475L60.971874 269.475L60.971874 262.75626Q60.58125 263.11563 59.95625 263.49063Q59.346874 263.85 58.8625 264.02188L58.8625 263.00626Q59.7375 262.58438 60.39375 262.00626Q61.065624 261.4125 61.346874 260.85L62.01875 260.85L62.01875 269.475ZM65.05 265.24063Q65.05 263.70938 65.3625 262.7875Q65.675 261.85 66.28438 261.35Q66.90938 260.85 67.84688 260.85Q68.53438 260.85 69.05 261.13126Q69.58125 261.4125 69.925 261.94376Q70.26875 262.45938 70.45625 263.20938Q70.64375 263.95938 70.64375 265.24063Q70.64375 266.75626 70.33125 267.67813Q70.03438 268.6 69.40938 269.11563Q68.8 269.61563 67.84688 269.61563Q66.6125 269.61563 65.89375 268.725Q65.05 267.6625 65.05 265.24063ZM66.12813 265.24063Q66.12813 267.35 66.62813 268.05313Q67.12813 268.75626 67.84688 268.75626Q68.58125 268.75626 69.06563 268.05313Q69.56563 267.35 69.56563 265.24063Q69.56563 263.11563 69.06563 262.42813Q68.58125 261.725 67.83125 261.725Q67.1125 261.725 66.675 262.33438Q66.12813 263.11563 66.12813 265.24063Z" fill-rule="nonzero"/><path fill="#ffffff" d="M63.596874 188.48438L63.596874 189.5L57.909374 189.5Q57.909374 189.125 58.034374 188.76562Q58.253124 188.1875 58.721874 187.625Q59.20625 187.0625 60.1125 186.32812Q61.51875 185.17188 62.003124 184.5Q62.503124 183.82812 62.503124 183.23438Q62.503124 182.60938 62.05 182.1875Q61.596874 181.75 60.878124 181.75Q60.1125 181.75 59.659374 182.20312Q59.20625 182.65625 59.190624 183.46875L58.1125 183.35938Q58.221874 182.14062 58.940624 181.51562Q59.675 180.875 60.909374 180.875Q62.14375 180.875 62.8625 181.5625Q63.58125 182.25 63.58125 183.26562Q63.58125 183.78125 63.3625 184.28125Q63.159374 184.76562 62.659374 185.32812Q62.175 185.875 61.05 186.82812Q60.096874 187.625 59.815624 187.92188Q59.55 188.20312 59.378124 188.48438L63.596874 188.48438ZM65.05 185.26562Q65.05 183.73438 65.3625 182.8125Q65.675 181.875 66.28438 181.375Q66.90938 180.875 67.84688 180.875Q68.53438 180.875 69.05 181.15625Q69.58125 181.4375 69.925 181.96875Q70.26875 182.48438 70.45625 183.23438Q70.64375 183.98438 70.64375 185.26562Q70.64375 186.78125 70.33125 187.70312Q70.03438 188.625 69.40938 189.14062Q68.8 189.64062 67.84688 189.64062Q66.6125 189.64062 65.89375 188.75Q65.05 187.6875 65.05 185.26562ZM66.12813 185.26562Q66.12813 187.375 66.62813 188.07812Q67.12813 188.78125 67.84688 188.78125Q68.58125 188.78125 69.06563 188.07812Q69.56563 187.375 69.56563 185.26562Q69.56563 183.14062 69.06563 182.45312Q68.58125 181.75 67.83125 181.75Q67.1125 181.75 66.675 182.35938Q66.12813 183.14062 66.12813 185.26562Z" fill-rule="nonzero"/><path fill="#ffffff" d="M58.05 107.25938L59.1125 107.11875Q59.284374 108.00938 59.721874 108.41563Q60.159374 108.80625 60.784374 108.80625Q61.534374 108.80625 62.05 108.29063Q62.565624 107.775 62.565624 107.00938Q62.565624 106.29063 62.08125 105.82188Q61.6125 105.3375 60.878124 105.3375Q60.58125 105.3375 60.128124 105.4625L60.253124 104.525Q60.3625 104.54063 60.425 104.54063Q61.096874 104.54063 61.628124 104.19688Q62.175 103.8375 62.175 103.10313Q62.175 102.525 61.784374 102.15Q61.39375 101.75938 60.76875 101.75938Q60.159374 101.75938 59.7375 102.15Q59.33125 102.54063 59.221874 103.30625L58.159374 103.11875Q58.346874 102.07188 59.034374 101.49375Q59.721874 100.9 60.7375 100.9Q61.440624 100.9 62.034374 101.2125Q62.628124 101.50938 62.940624 102.025Q63.253124 102.54063 63.253124 103.13438Q63.253124 103.68125 62.95625 104.15Q62.659374 104.60313 62.08125 104.86875Q62.83125 105.04063 63.253124 105.60313Q63.675 106.15 63.675 106.99375Q63.675 108.11875 62.846874 108.9Q62.034374 109.68125 60.784374 109.68125Q59.659374 109.68125 58.909374 109.00938Q58.159374 108.32188 58.05 107.25938ZM65.05 105.29063Q65.05 103.75938 65.3625 102.8375Q65.675 101.9 66.28438 101.4Q66.90938 100.9 67.84688 100.9Q68.53438 100.9 69.05 101.18125Q69.58125 101.4625 69.925 101.99375Q70.26875 102.50938 70.45625 103.25938Q70.64375 104.00938 70.64375 105.29063Q70.64375 106.80625 70.33125 107.72813Q70.03438 108.65 69.40938 109.16563Q68.8 109.66563 67.84688 109.66563Q66.6125 109.66563 65.89375 108.775Q65.05 107.7125 65.05 105.29063ZM66.12813 105.29063Q66.12813 107.4 66.62813 108.10313Q67.12813 108.80625 67.84688 108.80625Q68.58125 108.80625 69.06563 108.10313Q69.56563 107.4 69.56563 105.29063Q69.56563 103.16563 69.06563 102.47813Q68.58125 101.775 67.83125 101.775Q67.1125 101.775 66.675 102.38438Q66.12813 103.16563 66.12813 105.29063Z" fill-rule="nonzero"/><path fill="#ffffff" d="M61.425 29.55L61.425 27.4875L57.70625 27.4875L57.70625 26.51875L61.628124 20.95625L62.4875 20.95625L62.4875 26.51875L63.64375 26.51875L63.64375 27.4875L62.4875 27.4875L62.4875 29.55L61.425 29.55ZM61.425 26.51875L61.425 22.659374L58.7375 26.51875L61.425 26.51875ZM65.05 25.315624Q65.05 23.784374 65.3625 22.8625Q65.675 21.925 66.28438 21.425Q66.90938 20.925 67.84688 20.925Q68.53438 20.925 69.05 21.20625Q69.58125 21.4875 69.925 22.01875Q70.26875 22.534374 70.45625 23.284374Q70.64375 24.034374 70.64375 25.315624Q70.64375 26.83125 70.33125 27.753124Q70.03438 28.675 69.40938 29.190624Q68.8 29.690624 67.84688 29.690624Q66.6125 29.690624 65.89375 28.8Q65.05 27.7375 65.05 25.315624ZM66.12813 25.315624Q66.12813 27.425 66.62813 28.128124Q67.12813 28.83125 67.84688 28.83125Q68.58125 28.83125 69.06563 28.128124Q69.56563 27.425 69.56563 25.315624Q69.56563 23.190624 69.06563 22.503124Q68.58125 21.8 67.83125 21.8Q67.1125 21.8 66.675 22.409374Q66.12813 23.190624 66.12813 25.315624Z" fill-rule="nonzero"/></svg>