<?xml version="1.0" encoding="UTF-8"?>
<svg id="Layer_1" data-name="Layer 1" xmlns="http://www.w3.org/2000/svg" viewBox="0 0 512 512">
  <defs>
    <style>
      .cls-1 {
        fill: #e63846;
      }

      .cls-2 {
        fill: #e82;
      }

      .cls-3 {
        fill: none;
      }
    </style>
  </defs>
  <g>
    <path class="cls-3" d="m0,256L256,0h256c-46.63,0-90.34,12.47-128,34.26-38.86,22.47-71.27,54.88-93.74,93.74-21.79,37.66-34.26,81.37-34.26,128L0,512"/>
    <rect class="cls-3" x="256" y="384" width="128" height="128"/>
    <rect class="cls-3" x="384" y="256" width="128" height="128"/>
  </g>
  <polygon class="cls-2" points="256 0 0 256 0 0 256 0"/>
  <path class="cls-2" d="m512,0v256h-128v128h-128v128H0l256-256c0-46.63,12.47-90.34,34.26-128,22.47-38.86,54.88-71.27,93.74-93.74C421.66,12.47,465.37,0,512,0Z"/>
  <rect class="cls-1" x="384" y="383.7" width="128" height="128"/>
</svg>