<?xml version="1.0" encoding="UTF-8"?>
<svg id="Layer_1" data-name="Layer 1" xmlns="http://www.w3.org/2000/svg" viewBox="0 0 512 512">
  <defs>
    <style>
      .cls-1 {
        fill: #fff;
      }

      .cls-2 {
        fill: #f15a29;
      }

      .cls-3 {
        fill: #0c1220;
      }
    </style>
  </defs>
  <circle class="cls-3" cx="256" cy="256" r="256"/>
  <path class="cls-2" d="m290.81,206.78l-33.09,33.09-45.64-45.64c-22.35-22.35-33.52-51.65-33.52-80.96,0-29.3,11.17-58.61,33.52-80.96l78.73,78.73c26.45,26.45,26.45,69.28,0,95.73Z"/>
  <path class="cls-1" d="m373.17,286.33l-161.08,161.08c-44.7-44.72-44.7-117.21,0-161.91l45.64-45.64,33.09-33.09c26.45-26.45,26.45-69.28,0-95.73l47.87,47.87.06-.06,34.43,34.43c25.7,25.7,25.7,67.36,0,93.05Z"/>
  <path class="cls-2" d="m212.08,285.5h0l-45.64-45.64c-22.35,22.35-33.52,51.65-33.52,80.96s11.17,58.61,33.52,80.96l45.63,45.63c-44.7-44.72-44.7-117.21,0-161.91Z"/>
</svg>